# Blender 4.4.3
# www.blender.org
mtllib Arboreobj.mtl
o leaves
v -57.352501 33.321011 137.837997
v -76.084801 42.221310 141.867004
v -78.004700 31.386612 141.876999
v -74.268097 21.047110 136.173004
v -65.876198 13.973310 134.839996
v -55.077702 12.060611 139.735001
v -37.307400 12.343611 141.554993
v -2.554650 7.857999 128.048004
v -28.325600 31.605211 141.987000
v -37.738098 49.245510 140.483994
v -47.912601 52.496410 135.705002
v -58.711201 54.409111 136.921005
v -69.022903 50.648113 142.309006
v -96.644699 52.184311 126.421989
v -98.328003 16.671610 118.070000
v -75.953201 12.904510 125.935997
v -68.116997 -16.597790 120.688004
v -52.560398 1.930860 128.854004
v -39.418598 -7.418060 130.188995
v -10.577700 11.919608 109.915001
v -4.842150 33.340908 109.898003
v -27.230900 50.506413 130.151001
v -26.772800 72.065208 122.184990
v -58.842400 63.274612 127.231995
v -72.861099 71.285706 139.214005
v -106.241997 57.145309 107.421989
v -102.275002 15.854707 94.591904
v -81.509102 10.534207 95.508904
v -77.564903 -17.999992 102.714996
v -50.364101 -4.064453 93.031799
v -34.459400 -12.405593 89.882599
v -15.552700 14.704807 106.820000
v -2.923800 36.054806 96.300301
v -20.866199 53.450409 94.529289
v -31.407400 80.985107 104.443993
v -57.619701 68.626511 97.006393
v -74.401398 75.629906 95.456490
v 1.554570 6.475715 196.796005
v 1.827080 44.220116 204.128998
v -17.521299 39.053215 204.145996
v -31.702000 24.937016 193.764999
v -36.915298 5.653864 191.339005
v -31.764400 -13.629285 200.248001
v -17.629299 -42.723286 203.561005
v 1.702340 -103.496986 178.978012
v 21.050699 -42.723286 204.347000
v 42.908298 -13.629285 201.610992
v 40.444698 5.653875 192.912994
v 35.293800 24.937016 195.126999
v 21.158701 39.053215 204.932999
v 2.446870 85.796417 176.018997
v -57.425301 61.257912 160.817993
v -46.429100 21.453613 175.132996
v -89.065201 -14.164187 165.582001
v -46.536999 -25.572987 180.445007
v -51.849701 -54.440884 182.873993
v 2.230800 -87.139595 145.975006
v 41.976501 -80.123695 145.945007
v 53.069901 -29.990788 182.804993
v 88.983101 -14.164187 168.307999
v 49.816399 31.972614 177.492996
v 52.247799 61.257915 199.300003
v 3.247840 105.443008 141.438980
v -61.808701 67.140106 118.087990
v -54.612202 28.794710 119.757004
v -98.645203 0.341359 132.871994
v -54.736801 -33.807091 115.248001
v -56.262100 -66.457390 109.517006
v 2.998360 -76.791191 140.343002
v 47.928398 -81.200592 121.197006
v 62.821499 -38.224892 117.973999
v 100.132004 0.341377 136.018997
v 59.584801 34.072308 122.482002
v 58.228699 67.140106 119.660995
vn 0.1949 -0.0336 0.9803
vn 0.2119 -0.4122 0.8861
vn 0.0203 -0.1618 0.9866
vn -0.4070 0.0379 0.9126
vn -0.1028 0.0775 0.9917
vn 0.3697 0.4929 0.7876
vn -0.1471 -0.6146 0.7750
vn -0.1410 0.0091 0.9900
vn -0.3385 0.2670 0.9023
vn 0.1207 0.0509 0.9914
vn 0.4426 0.0674 0.8942
vn 0.1330 -0.1627 0.9777
vn -0.6387 -0.1473 0.7552
vn -0.7944 0.1413 0.5908
vn -0.3493 -0.6339 0.6900
vn -0.6596 -0.5315 0.5314
vn -0.8738 -0.3001 0.3826
vn -0.1951 -0.4002 0.8954
vn 0.0263 -0.4215 0.9064
vn -0.3890 -0.7174 0.5779
vn -0.5332 -0.6772 0.5071
vn -0.0811 -0.4904 0.8677
vn 0.6927 -0.4138 0.5907
vn -0.1796 -0.9739 -0.1387
vn 0.8689 -0.2330 -0.4367
vn 0.7087 0.4504 0.5430
vn 0.7580 0.3141 0.5717
vn 0.6216 0.3896 0.6796
vn 0.6643 0.2466 0.7056
vn -0.1369 0.6589 0.7397
vn -0.0365 0.5945 0.8033
vn 0.2025 0.7238 0.6596
vn 0.7057 0.5274 0.4730
vn 0.3926 0.2074 0.8960
vn -0.4966 0.0377 0.8671
vn -0.4550 0.3381 0.8238
vn -0.8937 -0.2092 0.3968
vn -0.9862 0.0078 0.1655
vn -0.2506 -0.9651 0.0757
vn -0.2034 -0.9726 0.1129
vn -0.9786 -0.0884 0.1856
vn -0.8334 -0.3035 0.4618
vn 0.4097 -0.9006 -0.1451
vn 0.7211 -0.6747 0.1571
vn -0.4420 -0.8887 0.1216
vn -0.5814 -0.8131 0.0291
vn 0.7547 -0.6333 0.1712
vn 0.0130 -0.7328 -0.6804
vn 0.2134 -0.5305 -0.8204
vn 0.9625 -0.2577 0.0844
vn 0.6645 0.7093 0.2353
vn 0.6966 0.6940 0.1818
vn 0.9377 0.2900 0.1915
vn 0.9397 -0.1359 -0.3138
vn -0.4816 0.7260 0.4909
vn -0.2374 0.9581 0.1600
vn 0.3651 0.9140 0.1766
vn 0.5362 0.8416 0.0647
vn -0.4700 0.8766 0.1036
vn -0.6909 0.5333 0.4882
vn 0.0518 -0.1908 0.9803
vn -0.2841 -0.3663 0.8861
vn -0.1381 -0.0868 0.9866
vn -0.1377 0.3849 0.9126
vn 0.0268 0.1259 0.9917
vn 0.6030 -0.1268 0.7876
vn -0.6192 -0.1264 0.7750
vn -0.0513 0.1316 0.9900
vn 0.0990 0.4196 0.9023
vn 0.0971 -0.0879 0.9914
vn 0.2481 -0.3727 0.8942
vn -0.0913 -0.1893 0.9777
vn -0.4035 0.5166 0.7552
vn -0.2077 0.7796 0.5908
vn -0.7222 0.0487 0.6900
vn -0.7605 0.3732 0.5313
vn -0.6413 0.6651 0.3826
vn -0.4452 0.0077 0.8954
vn -0.3710 -0.2019 0.9064
vn -0.8146 0.0494 0.5779
vn -0.8391 0.1971 0.5071
vn -0.4787 -0.1338 0.8677
vn -0.0823 -0.8027 0.5907
vn -0.9586 -0.2488 -0.1387
vn 0.1561 -0.8860 -0.4366
vn 0.7077 -0.4520 0.5430
vn 0.6050 -0.5542 0.5717
vn 0.6158 -0.3987 0.6796
vn 0.5042 -0.4979 0.7056
vn 0.5393 0.4025 0.7397
vn 0.5233 0.2843 0.8033
vn 0.7416 0.1224 0.6596
vn 0.7763 -0.4167 0.4730
vn 0.3539 -0.2681 0.8960
vn -0.1757 0.4660 0.8671
vn 0.1142 0.5553 0.8238
vn -0.5673 0.7216 0.3968
vn -0.4097 0.8971 0.1655
vn -0.9806 -0.1807 0.0757
vn -0.9674 -0.2266 0.1129
vn -0.4937 0.8496 0.1856
vn -0.6273 0.6271 0.4618
vn -0.6431 -0.7519 -0.1451
vn -0.3067 -0.9387 0.1571
vn -0.9923 0.0250 0.1216
vn -0.9826 0.1833 0.0291
vn -0.2550 -0.9517 0.1712
vn -0.6586 -0.3214 -0.6804
vn -0.3906 -0.4175 -0.8204
vn 0.1733 -0.9813 0.0844
vn 0.9237 -0.3024 0.2353
vn 0.9234 -0.3380 0.1818
vn 0.6591 -0.7273 0.1915
vn 0.2740 -0.9091 -0.3138
vn 0.4545 0.7433 0.4909
vn 0.7680 0.6201 0.1600
vn 0.9827 0.0554 0.1766
vn 0.9894 -0.1303 0.0647
vn 0.5958 0.7964 0.1036
vn 0.1913 0.8515 0.4882
vt 0.237162 0.654665
vt 0.146484 0.697219
vt 0.137190 0.645416
vt 0.155278 0.595980
vt 0.195901 0.562158
vt 0.248174 0.553013
vt 0.334195 0.554366
vt 0.502424 0.532919
vt 0.377673 0.646461
vt 0.332110 0.730804
vt 0.282858 0.746347
vt 0.230585 0.755492
vt 0.180669 0.737510
vt 0.046959 0.744855
vt 0.038811 0.575060
vt 0.147121 0.557048
vt 0.185054 0.415990
vt 0.260360 0.504580
vt 0.323975 0.459880
vt 0.463586 0.552339
vt 0.491351 0.654760
vt 0.382973 0.736833
vt 0.385190 0.839911
vt 0.229950 0.797881
vt 0.162089 0.836184
vt 0.000500 0.768575
vt 0.019704 0.571154
vt 0.120227 0.545715
vt 0.139319 0.409285
vt 0.270991 0.475915
vt 0.347982 0.436034
vt 0.439504 0.565656
vt 0.500637 0.667736
vt 0.413783 0.750909
vt 0.362756 0.882559
vt 0.235869 0.823470
vt 0.154633 0.856955
vt 0.522315 0.526310
vt 0.523635 0.706776
vt 0.429974 0.682072
vt 0.361329 0.614578
vt 0.336093 0.522381
vt 0.361027 0.430183
vt 0.429451 0.291077
vt 0.523031 0.000499
vt 0.616691 0.291077
vt 0.722498 0.430183
vt 0.710572 0.522381
vt 0.685638 0.614578
vt 0.617214 0.682072
vt 0.526635 0.905563
vt 0.236810 0.788239
vt 0.290039 0.597924
vt 0.083650 0.427625
vt 0.289517 0.373077
vt 0.263800 0.235052
vt 0.525589 0.078711
vt 0.717987 0.112256
vt 0.771687 0.351954
vt 0.945533 0.427625
vt 0.755938 0.648217
vt 0.767708 0.788239
vt 0.530512 0.999501
vt 0.215591 0.816363
vt 0.250427 0.633023
vt 0.037275 0.496980
vt 0.249824 0.333708
vt 0.242441 0.177598
vt 0.529304 0.128189
vt 0.746799 0.107107
vt 0.818892 0.312585
vt 0.999500 0.496980
vt 0.803224 0.658257
vt 0.796660 0.816363
s 1
usemtl leaves_color_LPTree1
f 1/1/1 2/2/1 3/3/1
f 1/1/2 3/3/2 4/4/2
f 1/1/3 4/4/3 5/5/3
f 1/1/4 5/5/4 6/6/4
f 1/1/5 6/6/5 7/7/5
f 1/1/6 7/7/6 8/8/6
f 1/1/7 8/8/7 9/9/7
f 1/1/8 9/9/8 10/10/8
f 1/1/9 10/10/9 11/11/9
f 1/1/10 11/11/10 12/12/10
f 1/1/11 12/12/11 13/13/11
f 1/1/12 13/13/12 2/2/12
f 2/2/13 14/14/13 15/15/13
f 2/2/14 15/15/14 3/3/14
f 3/3/15 15/15/15 16/16/15
f 3/3/16 16/16/16 4/4/16
f 4/4/17 16/16/17 17/17/17
f 4/4/18 17/17/18 5/5/18
f 5/5/19 17/17/19 18/18/19
f 5/5/20 18/18/20 6/6/20
f 6/6/21 18/18/21 19/19/21
f 6/6/22 19/19/22 7/7/22
f 7/7/23 19/19/23 20/20/23
f 7/7/24 20/20/24 8/8/24
f 8/8/25 20/20/25 21/21/25
f 8/8/26 21/21/26 9/9/26
f 9/9/27 21/21/27 22/22/27
f 9/9/28 22/22/28 10/10/28
f 10/10/29 22/22/29 23/23/29
f 10/10/30 23/23/30 11/11/30
f 11/11/31 23/23/31 24/24/31
f 11/11/32 24/24/32 12/12/32
f 12/12/33 24/24/33 25/25/33
f 12/12/34 25/25/34 13/13/34
f 13/13/35 25/25/35 14/14/35
f 13/13/36 14/14/36 2/2/36
f 14/14/37 26/26/37 27/27/37
f 14/14/38 27/27/38 15/15/38
f 15/15/39 27/27/39 28/28/39
f 15/15/40 28/28/40 16/16/40
f 16/16/41 28/28/41 29/29/41
f 16/16/42 29/29/42 17/17/42
f 17/17/43 29/29/43 30/30/43
f 17/17/44 30/30/44 18/18/44
f 18/18/45 30/30/45 31/31/45
f 18/18/46 31/31/46 19/19/46
f 19/19/47 31/31/47 32/32/47
f 19/19/48 32/32/48 20/20/48
f 20/20/49 32/32/49 33/33/49
f 20/20/50 33/33/50 21/21/50
f 21/21/51 33/33/51 34/34/51
f 21/21/52 34/34/52 22/22/52
f 22/22/53 34/34/53 35/35/53
f 22/22/54 35/35/54 23/23/54
f 23/23/55 35/35/55 36/36/55
f 23/23/56 36/36/56 24/24/56
f 24/24/57 36/36/57 37/37/57
f 24/24/58 37/37/58 25/25/58
f 25/25/59 37/37/59 26/26/59
f 25/25/60 26/26/60 14/14/60
f 38/38/61 39/39/61 40/40/61
f 38/38/62 40/40/62 41/41/62
f 38/38/63 41/41/63 42/42/63
f 38/38/64 42/42/64 43/43/64
f 38/38/65 43/43/65 44/44/65
f 38/38/66 44/44/66 45/45/66
f 38/38/67 45/45/67 46/46/67
f 38/38/68 46/46/68 47/47/68
f 38/38/69 47/47/69 48/48/69
f 38/38/70 48/48/70 49/49/70
f 38/38/71 49/49/71 50/50/71
f 38/38/72 50/50/72 39/39/72
f 39/39/73 51/51/73 52/52/73
f 39/39/74 52/52/74 40/40/74
f 40/40/75 52/52/75 53/53/75
f 40/40/76 53/53/76 41/41/76
f 41/41/77 53/53/77 54/54/77
f 41/41/78 54/54/78 42/42/78
f 42/42/79 54/54/79 55/55/79
f 42/42/80 55/55/80 43/43/80
f 43/43/81 55/55/81 56/56/81
f 43/43/82 56/56/82 44/44/82
f 44/44/83 56/56/83 57/57/83
f 44/44/84 57/57/84 45/45/84
f 45/45/85 57/57/85 58/58/85
f 45/45/86 58/58/86 46/46/86
f 46/46/87 58/58/87 59/59/87
f 46/46/88 59/59/88 47/47/88
f 47/47/89 59/59/89 60/60/89
f 47/47/90 60/60/90 48/48/90
f 48/48/91 60/60/91 61/61/91
f 48/48/92 61/61/92 49/49/92
f 49/49/93 61/61/93 62/62/93
f 49/49/94 62/62/94 50/50/94
f 50/50/95 62/62/95 51/51/95
f 50/50/96 51/51/96 39/39/96
f 51/51/97 63/63/97 64/64/97
f 51/51/98 64/64/98 52/52/98
f 52/52/99 64/64/99 65/65/99
f 52/52/100 65/65/100 53/53/100
f 53/53/101 65/65/101 66/66/101
f 53/53/102 66/66/102 54/54/102
f 54/54/103 66/66/103 67/67/103
f 54/54/104 67/67/104 55/55/104
f 55/55/105 67/67/105 68/68/105
f 55/55/106 68/68/106 56/56/106
f 56/56/107 68/68/107 69/69/107
f 56/56/108 69/69/108 57/57/108
f 57/57/109 69/69/109 70/70/109
f 57/57/110 70/70/110 58/58/110
f 58/58/111 70/70/111 71/71/111
f 58/58/112 71/71/112 59/59/112
f 59/59/113 71/71/113 72/72/113
f 59/59/114 72/72/114 60/60/114
f 60/60/115 72/72/115 73/73/115
f 60/60/116 73/73/116 61/61/116
f 61/61/117 73/73/117 74/74/117
f 61/61/118 74/74/118 62/62/118
f 62/62/119 74/74/119 63/63/119
f 62/62/120 63/63/120 51/51/120
o trunks
v 6.977090 4.076660 -0.000000
v 0.876735 12.473100 -0.000001
v -8.993850 9.265930 -0.000001
v -8.993850 -1.112620 0.000000
v 0.876737 -4.319770 0.000000
v 6.977090 4.076664 53.989799
v 0.876735 12.473104 53.989799
v -8.993850 9.265934 53.989799
v -8.993850 -1.112616 53.989799
v 0.876737 -4.319766 53.989799
v -0.032653 18.165205 87.325798
v 4.034250 12.567607 87.325798
v -6.613040 16.027105 87.325798
v -6.613040 9.108047 87.325798
v -0.032651 6.969947 87.325798
v -0.372749 13.841108 116.471001
v 2.933680 9.290209 116.471001
v -5.722660 12.102809 116.471001
v -5.722660 6.477589 116.471001
v -0.372748 4.739299 116.471001
v 11.935900 17.078611 158.990997
v 13.313500 15.182412 158.990997
v 9.706740 16.354311 158.990997
v 9.706740 14.010412 158.990997
v 11.935900 13.286212 158.990997
v 11.642300 13.725314 195.270004
v 12.363600 12.732514 195.270004
v 10.475200 13.346114 195.270004
v 10.475200 12.118915 195.270004
v 11.642300 11.739715 195.270004
v -6.735160 -0.250703 29.044201
v -0.910510 1.145952 32.690899
v 0.986535 7.751752 31.298000
v -3.665680 10.437702 26.790400
v -8.437950 5.491922 25.397499
v -34.146702 17.288607 67.580803
v -29.770800 18.337906 70.320503
v -28.345600 23.300606 69.274002
v -31.840700 25.318506 65.887604
v -35.425999 21.602905 64.841103
v -43.743301 27.190008 99.970100
v -45.970798 26.655807 98.575500
v -43.017799 29.716208 99.437401
v -44.796902 30.743408 97.713600
v -46.622002 28.852007 97.180901
v -62.622200 38.449608 119.572998
v -63.864899 38.151707 118.794998
v -62.217499 39.858906 119.276001
v -63.209999 40.432007 118.314003
v -64.228203 39.376808 118.016998
v 4.113790 7.970695 74.577904
v -0.008075 12.316706 78.224602
v -6.677390 10.656706 76.831596
v -6.677390 5.284745 72.324097
v -0.008074 3.624735 70.931198
v 2.630060 -24.538092 113.113998
v -0.466572 -21.273090 115.853996
v -5.477020 -22.520191 114.807999
v -5.477020 -26.555893 111.420998
v -0.466572 -27.802992 110.375000
v -1.146470 -37.799587 145.503998
v 0.429846 -39.461590 144.108994
v -3.697010 -38.434387 144.970993
v -3.697010 -40.488789 143.246994
v -1.146470 -41.123589 142.714996
v -1.458160 -59.779087 165.106995
v -0.578790 -60.706287 164.328995
v -2.881010 -60.133289 164.809998
v -2.881010 -61.279289 163.848007
v -1.458160 -61.633488 163.550995
vn 0.8090 0.5878 -0.0000
vn -0.3090 0.9511 -0.0000
vn -1.0000 -0.0000 -0.0000
vn -0.3090 -0.9511 -0.0000
vn 0.8090 -0.5878 -0.0000
vn 0.8065 0.5860 -0.0781
vn -0.3046 0.9375 -0.1684
vn -0.9975 -0.0000 0.0712
vn -0.2949 -0.9075 0.2993
vn 0.7899 -0.5739 0.2159
vn 0.8053 0.5851 0.0962
vn -0.3061 0.9422 0.1362
vn -0.9995 -0.0000 0.0305
vn -0.3081 -0.9483 -0.0762
vn 0.8085 -0.5874 -0.0355
vn 0.7793 0.5662 -0.2687
vn -0.3090 0.9509 0.0170
vn -0.9400 -0.0000 0.3411
vn -0.2975 -0.9157 0.2702
vn 0.8036 -0.5838 -0.1153
vn 0.8036 -0.5839 -0.1153
vn 0.8075 0.5867 0.0608
vn -0.3079 0.9476 0.0851
vn -0.9998 -0.0000 0.0212
vn -0.3087 -0.9502 -0.0430
vn 0.8089 -0.5877 -0.0185
vn -0.0287 -0.9173 0.3971
vn 0.7705 -0.0882 0.6313
vn 0.4866 0.8734 0.0182
vn -0.4882 0.6386 -0.5949
vn -0.8066 -0.4682 -0.3607
vn 0.0389 -0.9523 0.3026
vn 0.8751 -0.1546 0.4586
vn 0.4696 0.8819 0.0409
vn 0.4696 0.8819 0.0408
vn -0.6147 0.6971 -0.3691
vn -0.8894 -0.4020 -0.2178
vn -0.0667 -0.8916 0.4479
vn -0.0666 -0.8916 0.4479
vn 0.7039 -0.0529 0.7083
vn 0.7039 -0.0528 0.7083
vn 0.4843 0.8747 0.0215
vn 0.4842 0.8747 0.0214
vn -0.4312 0.6046 -0.6697
vn -0.4311 0.6046 -0.6697
vn -0.7727 -0.4874 -0.4067
vn 0.8088 0.4338 0.3971
vn -0.3089 0.7114 0.6313
vn -0.9997 -0.0153 0.0182
vn -0.3089 -0.7421 -0.5949
vn 0.8088 -0.4645 -0.3607
vn 0.8053 0.5098 0.3026
vn -0.3037 0.8352 0.4585
vn -0.3036 0.8352 0.4586
vn -0.9986 -0.0343 0.0408
vn -0.2962 -0.8809 -0.3691
vn -0.2963 -0.8809 -0.3691
vn 0.7928 -0.5692 -0.2178
vn 0.8055 0.3881 0.4479
vn 0.8055 0.3880 0.4479
vn -0.3062 0.6361 0.7083
vn -0.3063 0.6360 0.7083
vn -0.9996 -0.0180 0.0214
vn -0.3080 -0.6757 -0.6697
vn -0.3082 -0.6757 -0.6697
vn -0.3079 -0.6757 -0.6698
vn 0.8084 -0.4255 -0.4067
vn 0.8084 -0.4255 -0.4068
vt 0.356340 0.000500
vt 0.274157 0.276711
vt 0.356340 0.276711
vt 0.274157 0.000500
vt 0.305548 0.276711
vt 0.305548 0.000500
vt 0.407132 0.276711
vt 0.407131 0.000500
vt 0.438523 0.276711
vt 0.438523 0.000500
vt 0.218443 0.447258
vt 0.273232 0.447258
vt 0.239371 0.447258
vt 0.307093 0.447258
vt 0.328021 0.447258
vt 0.260767 0.596364
vt 0.305310 0.596364
vt 0.277781 0.596364
vt 0.332840 0.596364
vt 0.349854 0.596364
vt 0.229079 0.813898
vt 0.247639 0.813898
vt 0.236168 0.813898
vt 0.259109 0.813898
vt 0.266199 0.813898
vt 0.261901 0.999501
vt 0.271618 0.999501
vt 0.265612 0.999501
vt 0.277623 0.999501
vt 0.281335 0.999501
vt 0.398695 0.149090
vt 0.216753 0.360259
vt 0.227023 0.346243
vt 0.385025 0.167746
vt 0.168178 0.354905
vt 0.320368 0.160620
vt 0.148428 0.337581
vt 0.294079 0.137559
vt 0.184796 0.332227
vt 0.342487 0.130433
vt 0.130110 0.511947
vt 0.135338 0.504812
vt 0.105384 0.509221
vt 0.095330 0.500402
vt 0.113843 0.497677
vt 0.019902 0.612236
vt 0.022819 0.608256
vt 0.006108 0.610716
vt 0.000500 0.605796
vt 0.010827 0.604276
vt 0.318225 0.382040
vt 0.604459 0.593209
vt 0.636416 0.579193
vt 0.275688 0.400696
vt 0.616666 0.587856
vt 0.291936 0.393570
vt 0.656167 0.570531
vt 0.344515 0.370510
vt 0.668373 0.565177
vt 0.360763 0.363383
vt 0.766218 0.744897
vt 0.782486 0.737762
vt 0.772432 0.742172
vt 0.792540 0.733353
vt 0.798753 0.730627
vt 0.981350 0.845186
vt 0.990425 0.841206
vt 0.984817 0.843666
vt 0.996034 0.838746
vt 0.999501 0.837226
s 1
usemtl trunks_color_LPTree1
f 75/75/121 81/76/121 80/77/121
f 75/75/121 76/78/121 81/76/121
f 76/78/122 82/79/122 81/76/122
f 76/78/122 77/80/122 82/79/122
f 77/80/123 83/81/123 82/79/123
f 77/80/123 78/82/123 83/81/123
f 78/82/124 84/83/124 83/81/124
f 78/82/124 79/84/124 84/83/124
f 79/84/125 80/77/125 84/83/125
f 79/84/125 75/75/125 80/77/125
f 85/85/126 86/86/126 80/77/126
f 80/77/126 81/76/126 85/85/126
f 87/87/127 85/85/127 81/76/127
f 81/76/127 82/79/127 87/87/127
f 88/88/128 87/87/128 82/79/128
f 82/79/128 83/81/128 88/88/128
f 89/89/129 88/88/129 83/81/129
f 83/81/129 84/83/129 89/89/129
f 86/86/130 89/89/130 84/83/130
f 84/83/130 80/77/130 86/86/130
f 90/90/131 91/91/131 86/86/131
f 86/86/131 85/85/131 90/90/131
f 92/92/132 90/90/132 85/85/132
f 85/85/132 87/87/132 92/92/132
f 93/93/133 92/92/133 87/87/133
f 87/87/133 88/88/133 93/93/133
f 94/94/134 93/93/134 88/88/134
f 88/88/134 89/89/134 94/94/134
f 91/91/135 94/94/135 89/89/135
f 89/89/135 86/86/135 91/91/135
f 95/95/136 96/96/136 91/91/136
f 91/91/136 90/90/136 95/95/136
f 97/97/137 95/95/137 90/90/137
f 90/90/137 92/92/137 97/97/137
f 98/98/138 97/97/138 92/92/138
f 92/92/138 93/93/138 98/98/138
f 99/99/139 98/98/139 93/93/139
f 93/93/139 94/94/139 99/99/139
f 96/96/140 99/99/140 94/94/141
f 94/94/141 91/91/141 96/96/140
f 100/100/142 101/101/142 96/96/142
f 96/96/142 95/95/142 100/100/142
f 102/102/143 100/100/143 95/95/143
f 95/95/143 97/97/143 102/102/143
f 103/103/144 102/102/144 97/97/144
f 97/97/144 98/98/144 103/103/144
f 104/104/145 103/103/145 98/98/145
f 98/98/145 99/99/145 104/104/145
f 101/101/146 104/104/146 99/99/146
f 99/99/146 96/96/146 101/101/146
f 105/105/147 111/106/147 110/107/147
f 105/105/147 106/108/147 111/106/147
f 106/108/148 112/109/148 111/106/148
f 106/108/148 107/110/148 112/109/148
f 107/110/149 113/111/149 112/109/149
f 107/110/149 108/112/149 113/111/149
f 108/112/150 114/113/150 113/111/150
f 108/112/150 109/114/150 114/113/150
f 109/114/151 110/107/151 114/113/151
f 109/114/151 105/105/151 110/107/151
f 115/115/152 116/116/152 110/107/152
f 110/107/152 111/106/152 115/115/152
f 117/117/153 115/115/153 111/106/153
f 111/106/153 112/109/153 117/117/153
f 118/118/154 117/117/154 112/109/155
f 112/109/155 113/111/155 118/118/154
f 119/119/156 118/118/156 113/111/156
f 113/111/156 114/113/156 119/119/156
f 116/116/157 119/119/157 114/113/157
f 114/113/157 110/107/157 116/116/157
f 120/120/158 121/121/158 116/116/159
f 116/116/159 115/115/159 120/120/158
f 122/122/160 120/120/160 115/115/161
f 115/115/161 117/117/161 122/122/160
f 123/123/162 122/122/162 117/117/163
f 117/117/163 118/118/163 123/123/162
f 124/124/164 123/123/164 118/118/165
f 118/118/165 119/119/165 124/124/164
f 121/121/166 124/124/166 119/119/166
f 119/119/166 116/116/166 121/121/166
f 125/125/167 131/126/167 130/127/167
f 125/125/167 126/128/167 131/126/167
f 126/128/168 132/129/168 131/126/168
f 126/128/168 127/130/168 132/129/168
f 127/130/169 133/131/169 132/129/169
f 127/130/169 128/132/169 133/131/169
f 128/132/170 134/133/170 133/131/170
f 128/132/170 129/134/170 134/133/170
f 129/134/171 130/127/171 134/133/171
f 129/134/171 125/125/171 130/127/171
f 135/135/172 136/136/172 130/127/172
f 130/127/172 131/126/172 135/135/172
f 137/137/173 135/135/173 131/126/174
f 131/126/174 132/129/174 137/137/173
f 138/138/175 137/137/175 132/129/175
f 132/129/175 133/131/175 138/138/175
f 139/139/176 138/138/176 133/131/177
f 133/131/177 134/133/177 139/139/176
f 136/136/178 139/139/178 134/133/178
f 134/133/178 130/127/178 136/136/178
f 140/140/179 141/141/179 136/136/180
f 136/136/180 135/135/180 140/140/179
f 142/142/181 140/140/181 135/135/182
f 135/135/182 137/137/182 142/142/181
f 143/143/183 142/142/183 137/137/183
f 137/137/183 138/138/183 143/143/183
f 144/144/184 143/143/184 138/138/185
f 138/138/185 139/139/186 144/144/184
f 141/141/187 144/144/187 139/139/188
f 139/139/188 136/136/188 141/141/187
